<svg xmlns="http://www.w3.org/2000/svg" viewBox="0 0 256 256" role="img" aria-label="QR placeholder">
  <rect width="256" height="256" rx="24" fill="#fffdf9"/>
  <rect x="16" y="16" width="224" height="224" rx="20" fill="#ffffff" stroke="#e8dfd2" stroke-width="8"/>
  <g fill="#18222f">
    <rect x="32" y="32" width="56" height="56" rx="8"/>
    <rect x="40" y="40" width="40" height="40" rx="6" fill="#fff"/>
    <rect x="48" y="48" width="24" height="24" rx="4"/>
    <rect x="168" y="32" width="56" height="56" rx="8"/>
    <rect x="176" y="40" width="40" height="40" rx="6" fill="#fff"/>
    <rect x="184" y="48" width="24" height="24" rx="4"/>
    <rect x="32" y="168" width="56" height="56" rx="8"/>
    <rect x="40" y="176" width="40" height="40" rx="6" fill="#fff"/>
    <rect x="48" y="184" width="24" height="24" rx="4"/>
    <rect x="112" y="32" width="16" height="16" rx="3"/>
    <rect x="128" y="32" width="16" height="16" rx="3"/>
    <rect x="112" y="48" width="16" height="16" rx="3"/>
    <rect x="128" y="64" width="16" height="16" rx="3"/>
    <rect x="112" y="80" width="16" height="16" rx="3"/>
    <rect x="96" y="96" width="16" height="16" rx="3"/>
    <rect x="128" y="96" width="16" height="16" rx="3"/>
    <rect x="144" y="96" width="16" height="16" rx="3"/>
    <rect x="160" y="96" width="16" height="16" rx="3"/>
    <rect x="96" y="112" width="16" height="16" rx="3"/>
    <rect x="128" y="112" width="16" height="16" rx="3"/>
    <rect x="160" y="112" width="16" height="16" rx="3"/>
    <rect x="176" y="112" width="16" height="16" rx="3"/>
    <rect x="96" y="128" width="16" height="16" rx="3"/>
    <rect x="112" y="128" width="16" height="16" rx="3"/>
    <rect x="144" y="128" width="16" height="16" rx="3"/>
    <rect x="176" y="128" width="16" height="16" rx="3"/>
    <rect x="192" y="128" width="16" height="16" rx="3"/>
    <rect x="112" y="144" width="16" height="16" rx="3"/>
    <rect x="128" y="144" width="16" height="16" rx="3"/>
    <rect x="160" y="144" width="16" height="16" rx="3"/>
    <rect x="96" y="160" width="16" height="16" rx="3"/>
    <rect x="128" y="160" width="16" height="16" rx="3"/>
    <rect x="144" y="160" width="16" height="16" rx="3"/>
    <rect x="176" y="160" width="16" height="16" rx="3"/>
    <rect x="96" y="176" width="16" height="16" rx="3"/>
    <rect x="112" y="176" width="16" height="16" rx="3"/>
    <rect x="160" y="176" width="16" height="16" rx="3"/>
    <rect x="176" y="176" width="16" height="16" rx="3"/>
    <rect x="192" y="176" width="16" height="16" rx="3"/>
    <rect x="112" y="192" width="16" height="16" rx="3"/>
    <rect x="144" y="192" width="16" height="16" rx="3"/>
    <rect x="160" y="192" width="16" height="16" rx="3"/>
    <rect x="192" y="192" width="16" height="16" rx="3"/>
    <rect x="128" y="208" width="16" height="16" rx="3"/>
    <rect x="176" y="208" width="16" height="16" rx="3"/>
  </g>
</svg>
